<svg width="25" height="25" viewBox="0 0 25 25" fill="none" xmlns="http://www.w3.org/2000/svg">
<path d="M22.6074 0.920117C21.2587 0.326758 19.49 0 17.627 0C13.8144 0 10.3027 1.39995 10.3027 3.66211C10.3027 4.22808 10.3027 8.62861 10.3027 9.15747C9.58052 8.94717 8.82622 8.83789 8.05664 8.83789C5.90957 8.83789 3.88643 9.68633 2.35986 11.227C0.838086 12.7627 0 14.7929 0 16.9434C0 21.3858 3.61421 25 8.05664 25C9.53911 25 10.9644 24.6016 12.2099 23.8556C13.5722 24.5864 15.5133 25 17.627 25C19.49 25 21.2587 24.6732 22.6074 24.0799C24.1503 23.4011 25 22.4273 25 21.3379C25 20.8817 25 4.12773 25 3.66211C25 2.57266 24.1503 1.59888 22.6074 0.920117ZM8.05664 23.5352C4.42192 23.5352 1.46484 20.5781 1.46484 16.9434C1.46484 13.2817 4.42192 10.3027 8.05664 10.3027C11.7183 10.3027 14.6973 13.2817 14.6973 16.9434C14.6973 20.5781 11.7183 23.5352 8.05664 23.5352ZM23.5352 21.3379C23.5352 22.2338 21.2335 23.5352 17.627 23.5352C16.0927 23.5352 14.6433 23.2893 13.5435 22.8584C13.621 22.7871 13.6978 22.7147 13.7731 22.6401C14.4326 21.9866 14.9648 21.2419 15.3584 20.4356C16.0861 20.5479 16.8462 20.6055 17.627 20.6055C19.5529 20.6055 21.9412 20.2311 23.5352 19.1885V21.3379ZM23.5352 16.9434C23.5352 17.8393 21.2335 19.1406 17.627 19.1406C17.0294 19.1406 16.447 19.1033 15.8857 19.031C16.0677 18.3579 16.1621 17.6576 16.1621 16.9434C16.1621 16.6558 16.1464 16.3705 16.1165 16.088C16.6098 16.1369 17.1147 16.1621 17.627 16.1621C19.553 16.1621 21.9412 15.7877 23.5352 14.7452V16.9434ZM23.5352 12.5C23.5352 13.3959 21.2335 14.6973 17.627 14.6973C17.0035 14.6973 16.3936 14.6565 15.8069 14.5772C15.4268 13.3442 14.7486 12.2093 13.809 11.259C14.9414 11.5896 16.2567 11.7676 17.627 11.7676C19.553 11.7676 21.9412 11.3932 23.5352 10.3506V12.5ZM23.5352 8.10547C23.5352 9.00137 21.2335 10.3027 17.627 10.3027C15.9665 10.3027 14.4167 10.0204 13.2633 9.50776C12.3407 9.09775 11.7676 8.5604 11.7676 8.10547V5.91772C13.3532 6.95708 15.7213 7.32422 17.627 7.32422C19.553 7.32422 21.9412 6.9498 23.5352 5.90728V8.10547ZM17.627 5.85938C14.049 5.85938 11.7676 4.57739 11.7676 3.66211C11.7676 2.74399 14.0555 1.46484 17.627 1.46484C21.2335 1.46484 23.5352 2.76621 23.5352 3.66211C23.5352 4.55801 21.2335 5.85938 17.627 5.85938Z" fill="white"/>
</svg>
