<svg width="36" height="30" viewBox="0 0 36 30" fill="none" xmlns="http://www.w3.org/2000/svg">
<path d="M35.2986 8.01969C35.7195 7.8702 36.0005 7.47197 36 7.02562C35.9994 6.57927 35.7175 6.18174 35.2962 6.03324L18.3509 0.0600613C18.1239 -0.0200204 17.8762 -0.0200204 17.6491 0.0600613L0.703829 6.03324C0.282517 6.18167 0.000563343 6.57927 8.42838e-07 7.02562C-0.000561657 7.47197 0.280477 7.8702 0.701438 8.01969L7.4141 10.4039V17.2773C7.4141 18.4118 8.59866 19.3711 10.9349 20.1287C12.9712 20.789 15.4804 21.1527 18.0001 21.1527C20.5198 21.1527 23.0289 20.789 25.0653 20.1287C27.4015 19.3711 28.586 18.4118 28.586 17.2773V10.4039L31.3575 9.4195V18.9439C30.125 19.3793 29.2394 20.5544 29.2394 21.933C29.2394 23.3116 30.125 24.4868 31.3575 24.9222V28.9463C31.3575 29.5282 31.8298 30 32.4122 30C32.9947 30 33.4669 29.5282 33.4669 28.9463V24.9222C34.6994 24.4868 35.5851 23.3116 35.5851 21.933C35.5851 20.5545 34.6994 19.3793 33.4669 18.9439V8.67025L35.2986 8.01969ZM32.4122 22.9955C31.8258 22.9955 31.3487 22.5188 31.3487 21.933C31.3487 21.3471 31.8258 20.8705 32.4122 20.8705C32.9986 20.8705 33.4756 21.3471 33.4756 21.933C33.4756 22.5188 32.9986 22.9955 32.4122 22.9955ZM18 2.17106L31.7861 7.03068L18 11.9271L4.2139 7.03061L18 2.17106ZM26.4766 17.1185C26.2744 17.3221 25.5508 17.8097 23.9175 18.2752C22.1751 18.7718 20.0735 19.0452 18 19.0452C15.9265 19.0452 13.825 18.7718 12.0825 18.2752C10.4492 17.8097 9.72556 17.3222 9.52341 17.1185V11.1531L17.6467 14.0382C17.7609 14.0789 17.8805 14.0992 17.9999 14.0992C18.1195 14.0992 18.2389 14.0789 18.3532 14.0382L26.4765 11.1531V17.1185H26.4766Z" fill="#232323"/>
</svg>
