<svg width="28" height="28" viewBox="0 0 28 28" fill="none" xmlns="http://www.w3.org/2000/svg">
<path d="M19.1177 8.88431C18.7818 3.9935 14.6939 0 9.57031 0C4.29324 0 0 4.29324 0 9.57031C0 14.6926 3.99268 18.7821 8.88437 19.118C9.23836 24.075 13.3841 28 18.4297 28C23.7068 28 28 23.7068 28 18.4297C28 13.384 24.0749 9.2382 19.1177 8.88431ZM1.64062 9.57031C1.64062 5.19788 5.19788 1.64062 9.57031 1.64062C13.7745 1.64062 17.1514 4.893 17.4745 8.90695C15.5133 9.10219 13.7247 9.8922 12.2916 11.0932L10.4032 5.42812C10.2915 5.0931 9.97812 4.86719 9.625 4.86719C9.27188 4.86719 8.95847 5.0931 8.8468 5.42812L6.2218 13.3031C6.04417 13.8359 6.44306 14.383 7.00011 14.383C7.34355 14.383 7.66363 14.1656 7.77826 13.8219L8.17458 12.6328H10.8203C9.77277 14.0045 9.08687 15.6662 8.9069 17.4749C4.96251 17.1592 1.64062 13.8374 1.64062 9.57031ZM10.5285 10.9922H8.72145L9.625 8.28155L10.5285 10.9922ZM18.4297 26.3594C14.0573 26.3594 10.5 22.8021 10.5 18.4297C10.5 14.0573 14.0573 10.5 18.4297 10.5C22.8021 10.5 26.3594 14.0573 26.3594 18.4297C26.3594 22.8021 22.8021 26.3594 18.4297 26.3594Z" fill="black"/>
<path d="M17.0624 14.4922H14.8749C14.4219 14.4922 14.0546 14.8595 14.0546 15.3125C14.0546 15.7655 14.4219 16.1328 14.8749 16.1328H16.1999C16.0712 17.5408 15.6127 19.7967 14.3625 20.7969C14.0087 21.08 13.9513 21.5961 14.2343 21.9499C14.5182 22.3047 15.0346 22.3602 15.3873 22.078C17.8543 20.1045 17.8827 15.5072 17.8827 15.3125C17.8827 14.8595 17.5154 14.4922 17.0624 14.4922Z" fill="black"/>
<path d="M21.875 16.6797H20.9453V14.4375C20.9453 13.9845 20.578 13.6172 20.125 13.6172C19.672 13.6172 19.3047 13.9845 19.3047 14.4375V22.3125C19.3047 22.7655 19.672 23.1328 20.125 23.1328C20.578 23.1328 20.9453 22.7655 20.9453 22.3125V18.3203H21.875C22.328 18.3203 22.6953 17.953 22.6953 17.5C22.6953 17.047 22.328 16.6797 21.875 16.6797Z" fill="black"/>
<path d="M21 3.44531C22.9601 3.44531 24.5547 5.03995 24.5547 7C24.5547 7.45303 24.922 7.82031 25.375 7.82031C25.828 7.82031 26.1953 7.45303 26.1953 7C26.1953 4.1353 23.8647 1.80469 21 1.80469C20.547 1.80469 20.1797 2.17197 20.1797 2.625C20.1797 3.07803 20.547 3.44531 21 3.44531Z" fill="black"/>
<path d="M7 24.5547C5.03995 24.5547 3.44531 22.9601 3.44531 21C3.44531 20.547 3.07803 20.1797 2.625 20.1797C2.17197 20.1797 1.80469 20.547 1.80469 21C1.80469 23.8647 4.1353 26.1953 7 26.1953C7.45303 26.1953 7.82031 25.828 7.82031 25.375C7.82031 24.922 7.45303 24.5547 7 24.5547Z" fill="black"/>
</svg>
