<svg width="28" height="28" viewBox="0 0 28 28" fill="none" xmlns="http://www.w3.org/2000/svg">
<path d="M3 5.99805V11.998H9" stroke="#DF4D3D" stroke-width="2" stroke-linecap="round" stroke-linejoin="round"/>
<path d="M25 21.998V15.998H19" stroke="#DF4D3D" stroke-width="2" stroke-linecap="round" stroke-linejoin="round"/>
<path d="M22.49 10.9976C21.9828 9.56442 21.1209 8.28304 19.9845 7.27305C18.8482 6.26307 17.4745 5.5574 15.9917 5.22189C14.5089 4.88639 12.9652 4.93198 11.5048 5.35441C10.0444 5.77684 8.71475 6.56235 7.64 7.63763L3 11.9976M25 15.9976L20.36 20.3576C19.2853 21.4329 17.9556 22.2184 16.4952 22.6409C15.0348 23.0633 13.4911 23.1089 12.0083 22.7734C10.5255 22.4379 9.1518 21.7322 8.01547 20.7222C6.87913 19.7122 6.01717 18.4308 5.51 16.9976" stroke="#DF4D3D" stroke-width="2" stroke-linecap="round" stroke-linejoin="round"/>
</svg>
