<svg width="29" height="33" viewBox="0 0 29 33" fill="none" xmlns="http://www.w3.org/2000/svg">
<path d="M18.0984 12.7779V14.5M18.0984 12.7779C18.0984 11.2615 19.2066 10.0322 20.5737 10.0322C21.9408 10.0322 23.0491 11.2615 23.0491 12.7779M18.0984 12.7779C18.0984 11.2615 16.9901 10.0322 15.623 10.0322C14.2559 10.0322 13.1515 11.2615 13.1515 12.7779M23.0491 12.7779V14.5M23.0491 12.7779C23.0491 11.2615 24.1573 10.0322 25.5244 10.0322C26.8915 10.0322 27.9998 11.2615 27.9998 12.7779V26.4621M13.1515 12.7779V3.74571C13.1515 2.22929 12.0433 1 10.6761 1C9.30904 1 8.20079 2.22929 8.20079 3.74571V17.4261C8.20079 18.6229 6.5294 18.9062 6.13513 17.7762V17.7762C6.11382 17.7151 6.08457 17.6567 6.04571 17.605C5.14774 16.4093 3.43839 16.1283 2.19213 16.9886C0.92708 17.862 0.620178 19.5801 1.5066 20.8263L6.46343 27.7953C8.33973 30.4332 11.3769 31.9997 14.614 31.9991L22.3801 31.9978M13.1515 12.7779V14.5M28 26.4642C28 29.5215 25.4839 31.9999 22.3801 31.9999" stroke="#DF4D3D" stroke-width="2" stroke-linecap="round"/>
</svg>
