<svg width="95" height="100" viewBox="0 0 95 100" fill="none" xmlns="http://www.w3.org/2000/svg">
<path d="M89.228 55.463C85.7214 54.2755 82.0032 55.409 79.7542 58.3497L69.389 71.9041C69.3906 71.8304 69.3945 71.7571 69.3945 71.6829C69.3945 66.5674 65.2327 62.4056 60.1172 62.4056H41.705C35.8349 57.4114 27.5385 56.5226 20.7812 60.0207V59.6224C20.7812 58.0853 19.5351 56.8392 17.998 56.8392H2.7832C1.24613 56.8392 0 58.0853 0 59.6224V96.7317C0 98.2688 1.24613 99.5149 2.7832 99.5149H17.998C19.5351 99.5149 20.7812 98.2688 20.7812 96.7317V93.9485H66.4006C73.0608 93.9485 79.1871 90.6039 82.7888 85.0013L93.6505 68.1052C94.5333 66.732 95 65.1431 95 63.5105C95 59.8088 92.7343 56.6497 89.228 55.463ZM15.2148 93.9485H5.56641V62.4056H15.2148V93.9485ZM88.9682 65.0952L78.1065 81.9913C75.5339 85.993 71.1578 88.3821 66.4006 88.3821H20.7812V66.621L21.7121 65.9562C26.9332 62.2265 34.0801 62.7475 38.7056 67.1951C39.2241 67.6936 39.9154 67.9722 40.6346 67.9722H60.117C62.1632 67.9722 63.8279 69.6369 63.8279 71.6831C63.8279 73.7293 62.1632 75.394 60.117 75.394H40.6348H40.2637C38.7266 75.394 37.4805 76.6402 37.4805 78.1772C37.4805 79.7143 38.7266 80.9604 40.2637 80.9604H40.6348H60.1172H62.5942C66.9004 80.9604 71.0327 78.9183 73.6486 75.4977L84.1759 61.7311C85.3603 60.1823 86.976 60.5774 87.443 60.7356C87.9101 60.8939 89.4336 61.5611 89.4336 63.511C89.4336 64.0736 89.2727 64.6215 88.9682 65.0952Z" fill="#FF7263"/>
<path d="M49 1.49829C36.0409 1.49829 25.5 12.0392 25.5 24.9983C25.5 37.9574 36.0409 48.4983 49 48.4983C61.9591 48.4983 72.5 37.9556 72.5 24.9983C72.5 12.041 61.9591 1.49829 49 1.49829ZM49 43.9352C38.56 43.9352 30.0631 35.44 30.0631 24.9983C30.0631 14.5566 38.56 6.0614 49 6.0614C59.4418 6.0614 67.9369 14.5565 67.9369 24.9983C67.9369 35.44 59.44 43.9352 49 43.9352Z" fill="#FF7263" stroke="#FF7263"/>
<path d="M54.4054 19.0731L54.4056 19.0728C55.0674 18.3547 56.19 18.304 56.9141 18.9532L54.4054 19.0731ZM54.4054 19.0731L46.9508 27.1733L43.5471 23.7588L43.5465 23.7581M54.4054 19.0731L43.5465 23.7581M43.5465 23.7581C42.8567 23.0687 41.7352 23.056 41.0346 23.738M43.5465 23.7581L41.0346 23.738M41.0346 23.738C40.3308 24.4207 40.3199 25.5404 41.0138 26.2358M41.0346 23.738L48.3174 30.9226M41.0138 26.2358L41.0136 26.2357L41.3677 25.8827L41.0138 26.2358ZM41.0138 26.2358L45.7355 30.9723L45.7357 30.9725C46.066 31.3036 46.511 31.4902 46.9766 31.4968M46.9766 31.4968L46.9907 31.4992L47.0373 31.4982C47.5246 31.4877 47.9871 31.2819 48.3174 30.9226M46.9766 31.4968C46.9852 31.497 46.9937 31.497 47.0023 31.497C47.0054 31.497 47.0048 31.497 47.0023 31.497C47.0006 31.497 46.9981 31.4969 46.9953 31.4968C46.9887 31.4966 46.9698 31.4957 46.9448 31.4916L46.9766 31.4968ZM48.3174 30.9226L47.9495 30.584M48.3174 30.9226L47.9495 30.584M47.9495 30.584L48.3176 30.9223L57.0355 21.4492L57.0361 21.4485C57.6987 20.726 57.6457 19.6083 56.9143 18.9534L47.9495 30.584ZM47.9495 30.584C47.7127 30.8417 47.3799 30.9907 47.0266 30.9983L47.9495 30.584Z" fill="#FF7263" stroke="#FF7263"/>
</svg>
