<svg width="22" height="21" viewBox="0 0 22 21" fill="none" xmlns="http://www.w3.org/2000/svg">
<path d="M10.998 4.49877L10.4557 3.93112C9.49198 2.92235 7.89584 1.63904 6.132 1.63904C4.50528 1.63904 3.16925 2.20291 2.24171 3.12873C1.31427 4.05446 0.75 5.38718 0.75 7.00904C0.75 8.77559 1.44022 10.2491 2.52919 11.6068C3.63256 12.9825 5.10755 14.195 6.63536 15.4469L6.63566 15.4472L6.68403 15.4868C8.08813 16.6385 9.60393 17.8819 10.778 19.2721L10.205 19.756M10.998 4.49877L6.16 16.027C3.131 13.545 0 10.979 0 7.00904C0 3.40604 2.521 0.889038 6.132 0.889038C7.88981 0.889038 9.43078 1.94082 10.4625 2.88781C10.4602 2.89019 10.458 2.89258 10.4557 2.89496L10.998 3.41304L11.5403 2.89496C11.5381 2.89262 11.5358 2.89029 11.5336 2.88795C12.5663 1.94092 14.1103 0.889038 15.869 0.889038C19.479 0.889038 22 3.40604 22 7.00904C22 10.979 18.8686 13.5447 15.8414 16.0251L15.839 16.027C14.408 17.199 12.929 18.412 11.792 19.756M10.998 4.49877L11.5403 3.93112C12.5034 2.92297 14.1037 1.63904 15.869 1.63904C17.4952 1.63904 18.8309 2.20288 19.7584 3.1287C20.6857 4.05444 21.25 5.38718 21.25 7.00904C21.25 8.77601 20.5594 10.2497 19.47 11.6074C18.3663 12.9831 16.891 14.1954 15.3637 15.4469L10.998 4.49877ZM10.205 19.756L10.7768 19.2707C10.826 19.3287 10.8974 19.361 10.97 19.361H11.028C11.0999 19.361 11.1705 19.329 11.2197 19.2713C11.2198 19.2711 11.2199 19.271 11.22 19.2709L11.792 19.756M10.205 19.756C10.396 19.981 10.676 20.111 10.97 20.111H11.028C11.323 20.111 11.602 19.98 11.792 19.756M10.205 19.756H11.792" stroke="white" stroke-opacity="0.9" stroke-width="1.5"/>
</svg>
