<svg width="111" height="85" viewBox="0 0 111 85" fill="none" xmlns="http://www.w3.org/2000/svg">
<path d="M96.6101 27.8417C99.4742 24.9091 101.244 20.9033 101.244 16.49C101.244 7.52436 93.95 0.230225 84.9844 0.230225C76.0187 0.230225 68.7246 7.52436 68.7246 16.49C68.7246 20.8786 70.4753 24.864 73.3114 27.7923C70.1199 29.0321 67.2242 30.9798 64.8687 33.4958C59.7375 28.1621 51.2571 28.168 46.1313 33.4958C43.7758 30.98 40.8801 29.0323 37.6886 27.7925C40.5245 24.8642 42.2754 20.8788 42.2754 16.49C42.2754 7.52436 34.9813 0.230225 26.0156 0.230225C17.05 0.230225 9.75586 7.52436 9.75586 16.49C9.75586 20.9033 11.5258 24.9091 14.3899 27.8417C5.96929 31.1847 0 39.413 0 49.0095V81.5291C0 83.325 1.45601 84.781 3.25195 84.781H107.748C109.544 84.781 111 83.325 111 81.5291V49.0095C111 39.413 105.031 31.1847 96.6101 27.8417ZM84.9844 6.73413C90.3638 6.73413 94.7402 11.1106 94.7402 16.49C94.7402 21.8694 90.3638 26.2458 84.9844 26.2458C79.605 26.2458 75.2285 21.8694 75.2285 16.49C75.2285 11.1106 79.605 6.73413 84.9844 6.73413ZM55.5 36.0017C59.0863 36.0017 62.0039 38.9194 62.0039 42.5056C62.0039 46.0919 59.0863 49.0095 55.5 49.0095C51.9137 49.0095 48.9961 46.0919 48.9961 42.5056C48.9961 38.9194 51.9137 36.0017 55.5 36.0017ZM26.0156 6.73413C31.395 6.73413 35.7715 11.1106 35.7715 16.49C35.7715 21.8694 31.395 26.2458 26.0156 26.2458C20.6362 26.2458 16.2598 21.8694 16.2598 16.49C16.2598 11.1106 20.6362 6.73413 26.0156 6.73413ZM6.50391 49.0095C6.50391 40.0439 13.798 32.7498 22.7637 32.7498H29.4844C34.7827 32.7498 39.7772 35.3793 42.8037 39.6849C41.9491 43.5332 42.8738 47.503 45.3051 50.57C39.8033 53.1794 35.9883 58.7864 35.9883 65.2693V78.2771H6.50391V49.0095ZM42.4922 78.2771V65.2693C42.4922 59.8899 46.8687 55.5134 52.248 55.5134H58.752C64.1313 55.5134 68.5078 59.8899 68.5078 65.2693V78.2771H42.4922ZM104.496 78.2771H75.0117V65.2693C75.0117 58.7862 71.1967 53.1794 65.6949 50.57C68.1239 47.5058 69.0515 43.5369 68.1963 39.6851C71.2228 35.3791 76.2167 32.7498 81.5156 32.7498H88.2363C97.202 32.7498 104.496 40.0439 104.496 49.0095V78.2771Z" fill="#FF7263"/>
</svg>
