<svg width="30" height="23" viewBox="0 0 30 23" fill="none" xmlns="http://www.w3.org/2000/svg">
<path d="M2.55269 12.9247L2.48648 12.8498L2.12032 13.1733L2.12031 13.1733C1.94402 13.3291 1.677 13.3101 1.52339 13.1301L0.704282 12.1701L0.628239 12.235L0.70428 12.1701C0.550342 11.9897 0.569186 11.716 0.745258 11.559L14.7196 0.208366L14.7197 0.208434L14.7228 0.20566C14.8822 0.0647799 15.1179 0.0647799 15.2772 0.20566L15.2772 0.205726L15.2804 0.208367L29.2554 11.559C29.4314 11.716 29.4503 11.9897 29.2964 12.1701L28.4767 13.1301L28.4767 13.1301C28.3231 13.3101 28.056 13.3291 27.8797 13.1733L27.8797 13.1733L27.0123 12.407L27.0123 12.407L24.7148 10.3765L24.7149 10.3763L24.7099 10.3724L15.4072 3.15055C15.1731 2.94572 14.827 2.94571 14.5929 3.1505L5.47074 10.2126L5.47062 10.2125L5.46588 10.2166C5.32898 10.3372 5.25147 10.5115 5.25147 10.6942V22.1675C5.25147 22.2971 5.14859 22.3992 5.02555 22.3992H3.38043C3.25681 22.3992 3.15393 22.2971 3.15393 22.1669V13.1576C3.15393 12.8106 2.74973 12.6172 2.48649 12.8498L2.55269 12.9247ZM0.628211 12.235L1.44732 13.195L0.680519 11.4827C0.46209 11.6758 0.438522 12.0127 0.628211 12.235Z" fill="white" stroke="#FF7263" stroke-width="0.2"/>
<path d="M12.1398 17.2154C11.3493 17.2957 10.6912 16.6222 10.7696 15.8233L12.1398 17.2154ZM12.1398 17.2154C12.7252 17.1561 13.1961 16.6752 13.2541 16.0826M12.1398 17.2154L13.2541 16.0826M13.2541 16.0826C13.3325 15.2837 12.675 14.6102 11.8839 14.6905L13.2541 16.0826ZM19.4725 14.6203C19.6152 15.3494 20.184 15.9293 20.9028 16.0749C22.178 16.3336 23.2987 15.1877 23.0459 13.8968C22.9032 13.1672 22.3338 12.5872 21.6156 12.4421C20.3404 12.1835 19.2197 13.3294 19.4725 14.6203ZM19.4725 14.6203L19.5707 14.6011L19.4725 14.6203C19.4725 14.6203 19.4725 14.6203 19.4725 14.6203ZM24.3132 16.7561L24.2407 16.8479L24.3426 16.9053C26.2504 17.9797 27.5545 20.0356 27.5909 22.4001H25.493C25.4406 20.104 23.589 18.2502 21.3164 18.2502C19.0437 18.2502 17.1922 20.104 17.1398 22.4001H15.0171C14.9652 20.7523 13.6351 19.4256 12.0013 19.419L12.0005 19.419C10.3667 19.4256 9.03668 20.7529 8.98476 22.4001H6.88657C6.9202 20.5877 7.86597 18.9993 9.27424 18.0897L9.36212 18.0329L9.30146 17.9477C8.86695 17.3372 8.62561 16.5762 8.67144 15.7561L8.67144 15.7561C8.77033 13.9826 10.2226 12.5715 11.9644 12.5471L11.9644 12.5471C13.8291 12.5205 15.3579 14.0572 15.3579 15.9535C15.3579 16.7024 15.1188 17.3946 14.7156 17.9574L14.6546 18.0424L14.7423 18.0995C15.1607 18.3714 15.538 18.7037 15.8623 19.0843L15.9507 19.1881L16.0231 19.0726C16.5722 18.197 17.3244 17.4667 18.2115 16.9502L18.3126 16.8914L18.2388 16.8007C17.6399 16.0639 17.2949 15.105 17.3431 14.0652C17.438 12.0307 19.0505 10.3808 21.0453 10.2726L21.0399 10.1727L21.0453 10.2726C23.3019 10.15 25.1792 11.9835 25.1792 14.2582C25.1792 15.2031 24.8544 16.0718 24.3132 16.7561Z" fill="white" stroke="#FF7263" stroke-width="0.2"/>
</svg>
