<svg width="27" height="21" viewBox="0 0 27 21" fill="none" xmlns="http://www.w3.org/2000/svg">
<path d="M1.84742 11.6323L1.78121 11.5573L1.45167 11.8485L1.45166 11.8485C1.29721 11.985 1.0633 11.9684 0.928661 11.8106L0.191461 10.9466L0.115418 11.0115L0.191459 10.9466C0.0564866 10.7884 0.0729775 10.5484 0.227217 10.4107L12.804 0.195291L12.804 0.195359L12.8072 0.192586C12.9468 0.069138 13.1533 0.069138 13.2929 0.192586L13.2928 0.192652L13.2961 0.195292L25.8733 10.4107C26.0276 10.5484 26.0441 10.7884 25.9091 10.9466L25.1714 11.8106L25.1714 11.8106C25.0368 11.9684 24.8028 11.985 24.6484 11.8485L24.6484 11.8485L23.8677 11.1588L23.8677 11.1588L21.8 9.33133L21.8001 9.33118L21.7951 9.32727L13.4229 2.82778C13.2085 2.64039 12.8916 2.64038 12.6772 2.82773L4.46755 9.18346L4.46743 9.1833L4.46269 9.18748C4.33728 9.29787 4.26632 9.45753 4.26632 9.62476V19.9508C4.26632 20.062 4.17804 20.1493 4.07299 20.1493H2.59238C2.48682 20.1493 2.39854 20.062 2.39854 19.9502V11.8418C2.39854 11.5213 2.02486 11.3421 1.78122 11.5573L1.84742 11.6323Z" fill="white" stroke="#FF7263" stroke-width="0.2"/>
<path d="M10.3169 11.2027C8.7007 11.2254 7.35615 12.5337 7.26458 14.1758L12.9243 16.1321C13.2632 15.6264 13.4622 15.0159 13.4622 14.3585C13.4622 12.6032 12.0468 11.178 10.3169 11.2027ZM10.3169 11.2027V11.2027V11.2027ZM10.477 15.5041C9.75907 15.5771 9.16172 14.9654 9.23284 14.2403C9.23284 14.2403 9.23284 14.2403 9.23284 14.2403L10.477 15.5041ZM10.477 15.5041C11.0087 15.4502 11.4362 15.0136 11.4888 14.4756M10.477 15.5041L11.4888 14.4756M11.4888 14.4756C11.5599 13.7506 10.9631 13.1389 10.2447 13.2118L11.4888 14.4756ZM17.0656 13.1605C17.1948 13.8205 17.7097 14.3456 18.3606 14.4776C19.5156 14.7119 20.5301 13.6741 20.3012 12.5056C20.1721 11.845 19.6566 11.3199 19.0062 11.1884C17.8512 10.9541 16.8368 11.992 17.0656 13.1605ZM17.0656 13.1605L17.1631 13.1414L17.0656 13.1605C17.0656 13.1605 17.0656 13.1605 17.0656 13.1605ZM21.4242 15.0746L21.3516 15.1664L21.4536 15.2238C23.1649 16.1875 24.3355 18.0303 24.3718 20.1504H22.5036C22.4513 18.0832 20.7827 16.4155 18.7349 16.4155C16.6871 16.4155 15.0185 18.0832 14.9662 20.1504H13.0752C13.0235 18.6667 11.8242 17.4733 10.3514 17.4674L10.3506 17.4674C8.87782 17.4733 7.67855 18.6672 7.62675 20.1504H5.75826C5.79181 18.5269 6.6403 17.1046 7.90239 16.2894L7.99027 16.2327L7.9296 16.1474C7.53982 15.5998 7.32331 14.9171 7.36443 14.1814L7.36443 14.1814C7.45315 12.5903 8.75599 11.3246 10.3183 11.3027L10.3183 11.3027C11.9907 11.2788 13.3622 12.6572 13.3622 14.3585C13.3622 15.0303 13.1478 15.6513 12.786 16.1561L12.7251 16.2412L12.8128 16.2982C13.1885 16.5425 13.5273 16.8409 13.8186 17.1827L13.907 17.2864L13.9795 17.1709C14.4728 16.3843 15.1485 15.7282 15.9456 15.2641L16.0466 15.2053L15.9729 15.1146C15.4353 14.4533 15.1257 13.5928 15.169 12.6594C15.2541 10.8334 16.7015 9.35278 18.4915 9.25561L18.4861 9.15575L18.4915 9.25561C20.5164 9.14564 22.2014 10.791 22.2014 12.8327C22.2014 13.6808 21.9099 14.4604 21.4242 15.0746Z" fill="white" stroke="#FF7263" stroke-width="0.2"/>
</svg>
