<svg width="17" height="14" viewBox="0 0 17 14" fill="none" xmlns="http://www.w3.org/2000/svg">
<path d="M11.5579 0C10.0313 0 8.72688 1.08813 8.0102 1.83831C7.29352 1.08813 5.99199 0 4.46613 0C1.83613 0 0 1.83321 0 4.45739C0 7.34887 2.28041 9.21777 4.48653 11.0255C5.52804 11.8798 6.60597 12.7626 7.43263 13.7414C7.57174 13.9053 7.77567 14 7.9898 14H8.03205C8.24691 14 8.45011 13.9046 8.58849 13.7414C9.41661 12.7626 10.4938 11.8791 11.5361 11.0255C13.7414 9.2185 16.0233 7.3496 16.0233 4.45739C16.0233 1.83321 14.1872 0 11.5579 0Z" fill="white"/>
</svg>
