<svg width="22" height="21" viewBox="0 0 22 21" fill="none" xmlns="http://www.w3.org/2000/svg">
<path d="M15.869 0.88916C13.773 0.88916 11.982 2.38316 10.998 3.41316C10.014 2.38316 8.227 0.88916 6.132 0.88916C2.521 0.88916 0 3.40616 0 7.00916C0 10.9792 3.131 13.5452 6.16 16.0272C7.59 17.2002 9.07 18.4122 10.205 19.7562C10.396 19.9812 10.676 20.1112 10.97 20.1112H11.028C11.323 20.1112 11.602 19.9802 11.792 19.7562C12.929 18.4122 14.408 17.1992 15.839 16.0272C18.867 13.5462 22 10.9802 22 7.00916C22 3.40616 19.479 0.88916 15.869 0.88916Z" fill="#DF4D3D"/>
<path d="M10.998 4.4989L10.4557 3.93124C9.49198 2.92247 7.89584 1.63916 6.132 1.63916C4.50528 1.63916 3.16925 2.20304 2.24171 3.12886C1.31427 4.05458 0.75 5.3873 0.75 7.00916C0.75 8.77572 1.44022 10.2492 2.52919 11.6069C3.63256 12.9826 5.10755 14.1951 6.63536 15.447L6.63566 15.4473L6.68403 15.487C8.08813 16.6387 9.60393 17.882 10.778 19.2723L10.205 19.7562M10.998 4.4989L6.16 16.0272C3.131 13.5452 0 10.9792 0 7.00916C0 3.40616 2.521 0.88916 6.132 0.88916C7.88981 0.88916 9.43078 1.94095 10.4625 2.88793C10.4602 2.89032 10.458 2.8927 10.4557 2.89508L10.998 3.41316L11.5403 2.89508C11.5381 2.89274 11.5358 2.89041 11.5336 2.88807C12.5663 1.94105 14.1103 0.88916 15.869 0.88916C19.479 0.88916 22 3.40616 22 7.00916C22 10.9791 18.8686 13.5448 15.8414 16.0252L15.839 16.0272C14.408 17.1992 12.929 18.4122 11.792 19.7562M10.998 4.4989L11.5403 3.93124C12.5034 2.92309 14.1037 1.63916 15.869 1.63916C17.4952 1.63916 18.8309 2.203 19.7584 3.12883C20.6857 4.05456 21.25 5.3873 21.25 7.00916C21.25 8.77613 20.5594 10.2498 19.47 11.6076C18.3663 12.9833 16.891 14.1956 15.3637 15.447L10.998 4.4989ZM10.205 19.7562L10.7768 19.2708C10.826 19.3288 10.8974 19.3612 10.97 19.3612H11.028C11.0999 19.3612 11.1705 19.3292 11.2197 19.2714C11.2198 19.2713 11.2199 19.2711 11.22 19.271L11.792 19.7562M10.205 19.7562C10.396 19.9812 10.676 20.1112 10.97 20.1112H11.028C11.323 20.1112 11.602 19.9802 11.792 19.7562M10.205 19.7562H11.792" stroke="white" stroke-opacity="0.08" stroke-width="1.5"/>
</svg>
