<svg viewBox="0 0 16 17" fill="none" xmlns="http://www.w3.org/2000/svg">
    <circle cx="8" cy="8" r="7.5" stroke="#232323"/>
    <path d="M12.1 7.69998L12.6 7.49998C12.7 7.49998 12.8 7.29998 12.8 7.19998C12.8 7.09998 12.7 6.89998 12.6 6.89998L8 5.09998C7.9 5.09998 7.9 5.09998 7.8 5.09998L3.2 6.99998C3.1 6.99998 3 7.19998 3 7.29998C3 7.39998 3.1 7.59998 3.2 7.59998L5 8.39998V10.5C5 10.8 5.2 11.2 5.9 11.5C6.5 11.7 7.2 11.9 7.9 11.9C8.6 11.9 9.3 11.7 9.9 11.5C10.6 11.3 10.8 10.9 10.8 10.6V8.39998L11.5 7.99998L12.1 7.69998ZM7.9 5.79998L11.6 7.29998L7.9 8.79998L4.2 7.29998L7.9 5.79998ZM10.2 10.4C10.2 10.6 10.1 10.7 9.6 10.8C9.1 11 8.5 11.1 7.9 11.1C7.3 11.1 6.7 11 6.2 10.8C5.7 10.7 5.6 10.6 5.6 10.3V8.59998L7.8 9.39998H7.9H8L10.2 8.59998V10.4Z" fill="#232323" stroke="#232323" stroke-width="0.3"/>
</svg>
