<svg width="16" height="17" viewBox="0 0 16 17" fill="none" xmlns="http://www.w3.org/2000/svg">
<circle cx="8" cy="8.3999" r="7.5" stroke="#9E9E9E"/>
<path d="M10.8 7.46663C10.8 9.6444 7.99995 12.1333 7.99995 12.1333C7.99995 12.1333 5.19995 9.6444 5.19995 7.46663C5.19995 6.72402 5.49495 6.01183 6.02005 5.48673C6.54515 4.96163 7.25735 4.66663 7.99995 4.66663C8.74256 4.66663 9.45475 4.96163 9.97985 5.48673C10.505 6.01183 10.8 6.72402 10.8 7.46663Z" stroke="#9E9E9E" stroke-linecap="round" stroke-linejoin="round"/>
<path d="M7.99998 8.39999C8.51545 8.39999 8.93332 7.98212 8.93332 7.46666C8.93332 6.95119 8.51545 6.53333 7.99998 6.53333C7.48452 6.53333 7.06665 6.95119 7.06665 7.46666C7.06665 7.98212 7.48452 8.39999 7.99998 8.39999Z" stroke="#9E9E9E" stroke-linecap="round" stroke-linejoin="round"/>
</svg>
