<svg width="16" height="16" viewBox="0 0 16 16" fill="none" xmlns="http://www.w3.org/2000/svg">
<circle cx="8" cy="8" r="7.5" stroke="#232323"/>
<path d="M7.91191 5.49505C7.92544 5.49594 7.93897 5.49683 7.95275 5.49683C7.97612 5.49683 7.99949 5.49505 8.02237 5.49217C8.63468 5.5035 9.12473 5.95461 9.12547 6.50772C9.12547 6.75905 9.35106 6.96283 9.6293 6.96283C9.90753 6.96283 10.1331 6.75905 10.1331 6.50772C10.1319 5.60305 9.4347 4.82039 8.45657 4.62572V4.18839C8.45657 3.93705 8.23098 3.73328 7.95275 3.73328C7.67451 3.73328 7.44892 3.93705 7.44892 4.18839V4.64639C6.4147 4.89617 5.74555 5.79994 5.88504 6.75883C6.02453 7.71772 6.92935 8.43461 7.99998 8.43461C8.62164 8.43461 9.12547 8.88994 9.12547 9.4515C9.12547 10.0128 8.62164 10.4682 7.99998 10.4682C7.37831 10.4682 6.87449 10.0128 6.87449 9.4515C6.87449 9.20017 6.6489 8.99639 6.37066 8.99639C6.09243 8.99639 5.86684 9.20017 5.86684 9.4515C5.86807 10.3235 6.51655 11.0864 7.44892 11.3128V11.8115C7.44892 12.0628 7.67451 12.2666 7.95275 12.2666C8.23098 12.2666 8.45657 12.0628 8.45657 11.8115V11.3337C9.52056 11.1233 10.2382 10.2224 10.1208 9.24417C10.0037 8.26594 9.08931 7.52461 7.99998 7.52483C7.39554 7.52505 6.89884 7.09394 6.87498 6.54839C6.85136 6.00283 7.30919 5.5375 7.91191 5.49505Z" fill="#232323" stroke="#232323" stroke-width="0.3"/>
</svg>
