<svg width="16" height="17" viewBox="0 0 16 17" fill="none" xmlns="http://www.w3.org/2000/svg">
<circle cx="8" cy="8.80005" r="7.5" stroke="#232323"/>
<path d="M7.27522 5.98096H5.70788C5.38329 5.98096 5.12013 6.24041 5.12013 6.56043C5.12013 6.88046 5.38329 7.13991 5.70788 7.13991H6.65726C6.56502 8.13453 6.23655 9.72813 5.34073 10.4347C5.08726 10.6346 5.04615 10.9993 5.24893 11.2492C5.45233 11.4998 5.82234 11.539 6.07503 11.3397C7.84264 9.94555 7.86297 6.698 7.86297 6.56043C7.86297 6.24041 7.59982 5.98096 7.27522 5.98096Z" fill="#232323"/>
<path d="M10.8564 7.4208H10.1043V5.69731C10.1043 5.34909 9.80718 5.06677 9.44069 5.06677C9.07421 5.06677 8.7771 5.34909 8.7771 5.69731V11.7505C8.7771 12.0987 9.07421 12.3811 9.44069 12.3811C9.80718 12.3811 10.1043 12.0987 10.1043 11.7505V8.68188H10.8564C11.2228 8.68188 11.52 8.39956 11.52 8.05134C11.52 7.70311 11.2228 7.4208 10.8564 7.4208Z" fill="#232323"/>
</svg>
