<svg width="95" height="94" viewBox="0 0 95 94" fill="none" xmlns="http://www.w3.org/2000/svg">
<path d="M0.157418 20.3844C-0.227828 19.3909 0.102383 18.2501 1.05633 17.4774C2.2671 16.5022 4.17498 16.0974 5.62424 15.5455C7.36702 14.8831 9.1098 14.2024 10.8709 13.54C15.2921 11.8473 19.6949 10.081 24.116 8.3883C28.8307 6.58521 33.5271 4.80052 38.2417 2.99742C40.4248 2.15107 42.5895 1.19433 44.7542 0.329583C46.7355 -0.46157 48.9919 0.329583 50.8631 1.04714C57.6691 3.65978 64.4935 6.29083 71.2995 8.90347C77.9221 11.4425 84.673 13.7608 91.1855 16.5574C92.5614 17.1462 94.029 18.2869 93.9006 19.998C93.7722 21.7827 91.6441 22.3531 90.2132 22.8314C88.0302 23.5674 88.1953 25.1865 88.2136 27.284C88.232 29.1055 88.4338 30.9086 88.4338 32.7117C88.4338 36.465 88.4521 40.2368 88.4521 43.9902C88.4521 44.2294 88.4521 44.487 88.5805 44.7077C88.7273 44.9285 88.9658 45.0389 89.2043 45.1493C92.5064 46.7316 94.4693 50.6874 93.7355 54.2752C93.0017 57.863 89.6262 60.7332 85.9755 60.862C82.3249 61.0092 78.7476 58.4149 77.7386 54.8823C76.7296 51.3681 78.3807 47.2652 81.5544 45.4253C81.958 45.1861 82.3982 44.9653 82.6551 44.579C82.8936 44.1926 82.8936 43.7326 82.8936 43.2726C82.8936 37.385 82.8752 31.5157 82.8752 25.6281C79.2796 26.8424 75.7573 28.2223 72.2168 29.5286C71.8315 29.6758 71.7214 29.8598 71.7214 30.2462C71.7398 32.4173 71.7398 34.5883 71.7581 36.7778C71.7581 37.9369 71.7581 39.1145 71.7581 40.2736C71.7214 41.8559 71.6664 43.4382 71.006 44.9285C69.8135 47.6516 67.7039 49.4731 65.2456 50.9818C62.9708 52.3801 60.4576 53.1896 57.9627 54.036C56.495 54.3304 55.0458 54.6064 53.5782 54.9007C50.753 55.2319 47.9463 55.4527 45.1028 55.3055C43.5801 55.2319 42.0758 55.0663 40.5532 54.9559C39.5809 54.7719 38.5903 54.6063 37.618 54.4224C34.426 53.6128 31.344 52.5457 28.4638 50.9266C27.73 50.393 26.9779 49.841 26.2441 49.3075C23.6941 47.0628 22.0981 44.3582 22.1898 40.8256C22.1898 39.6664 22.1898 38.4889 22.1898 37.3298C22.1898 35.8579 22.2082 34.3676 22.2082 32.8956C22.2082 32.2149 22.52 30.2646 22.0431 29.7678C21.9146 29.639 21.7312 29.5654 21.5661 29.4918C15.4572 27.1368 9.31159 24.8921 3.166 22.6107C2.39551 22.3163 1.60668 22.0219 0.9646 21.5067C0.597699 21.2123 0.304178 20.8076 0.157418 20.3844ZM72.7121 23.457C75.6656 22.3531 78.6008 21.2491 81.5544 20.1268C82.49 19.7772 83.3338 19.3357 82.0497 18.7285C79.6281 17.5878 76.8214 16.8886 74.2897 15.9319C71.4279 14.8463 68.5661 13.7608 65.6859 12.6752C59.9623 10.5042 54.2203 8.31471 48.4966 6.14364C46.8822 5.53647 45.965 5.92285 44.4424 6.53001C42.6445 7.24757 40.8284 7.94673 39.0122 8.64589C35.4716 10.0258 31.9127 11.3873 28.3721 12.7488C25.4552 13.8712 22.5384 14.9751 19.6215 16.0974C16.7413 17.2014 13.5493 18.0845 10.8159 19.5196C13.2741 20.918 16.4662 21.6539 19.1445 22.6475C28.152 25.9961 37.1594 29.3631 46.1668 32.7301C46.442 32.8405 46.7355 32.9324 47.029 32.9508C47.4326 32.9692 47.8178 32.8221 48.2031 32.6749C56.3666 29.6022 64.5485 26.5296 72.7121 23.457ZM27.7851 34.7723C27.7667 36.7226 27.8401 38.6729 27.73 40.6232C27.6016 42.8863 28.739 44.3582 30.4818 45.5173C31.1422 46.1061 31.8943 46.5292 32.7199 46.8604C35.9486 48.5163 39.4158 49.2523 42.9931 49.6203C44.0938 49.7122 45.1945 49.8962 46.2952 49.8042C50.0743 49.933 53.78 49.4731 57.4123 48.4059C60.0356 47.6332 62.5306 46.6028 64.5852 44.7261C65.4291 43.9534 66.2179 43.0518 66.2546 41.8559C66.328 38.5257 66.2729 35.2139 66.2729 31.7733C64.8237 32.3437 63.4478 32.8956 62.0719 33.4292C60.2191 34.0364 58.3846 34.7171 56.5868 35.4899C53.9818 36.4466 51.3768 37.3666 48.7901 38.3601C47.5794 38.8385 46.4603 38.8569 45.2495 38.3417C44.1672 37.8817 43.0298 37.5322 41.9107 37.1458C41.1036 36.7042 40.2413 36.4466 39.3608 36.1707C36.2421 34.9931 33.1235 33.834 30.0048 32.6565C29.2893 32.3805 28.5739 32.0861 27.8217 31.7917C27.7851 32.8588 27.7851 33.8156 27.7851 34.7723ZM85.737 49.8594C84.2511 49.841 82.9853 51.0738 82.9669 52.5641C82.9303 54.0912 84.1961 55.3791 85.7187 55.3791C87.2046 55.3791 88.4521 54.1096 88.4521 52.6377C88.4521 51.129 87.223 49.8778 85.737 49.8594Z" fill="#FF7263"/>
<path d="M0.211835 82.9406C-0.301826 79.04 0.248525 74.9371 1.89958 71.3861C3.36718 68.2215 5.60528 66.1976 9.32932 66.4184C9.47608 66.4184 9.62284 66.4 9.78795 66.3816C10.9437 66.3816 12.1178 66.3816 13.2735 66.3816C28.72 66.3816 44.1482 66.3816 59.5947 66.3816C67.8133 66.3816 76.1236 66.768 84.3238 66.4C86.4886 66.308 88.4331 66.768 90.0658 68.2583C90.5428 68.8654 91.0381 69.491 91.5151 70.0982C92.2489 71.5701 92.8726 73.0604 93.2946 74.6611C94.964 80.9351 94.0467 91.7537 86.617 93.9984C60.1451 93.9984 33.6732 93.9984 7.20129 93.9984C5.78873 93.9984 3.8625 92.1953 3.11035 91.1097C2.06468 89.601 1.33088 87.7611 0.835567 85.9948C0.560391 85.0197 0.34025 83.9893 0.211835 82.9406ZM53.1189 72.4532C52.9538 72.1772 52.752 71.9381 52.4218 71.9381C51.0459 71.9197 49.6701 71.9381 48.1658 71.9381C48.7712 73.2628 49.0096 74.5507 49.3949 75.8018C49.505 76.777 49.6334 77.7705 49.7434 78.7457C49.7985 82.0575 49.4866 85.3325 48.1841 88.5155C49.3765 88.5155 50.4406 88.4235 51.5046 88.5339C52.6053 88.6443 53.2473 88.1475 53.6693 87.246C55.5772 83.2166 55.7239 79.0768 54.348 74.8635C54.1463 73.9619 53.761 73.1524 53.1189 72.4532ZM16.2271 75.9674C16.3371 77.0162 16.4655 78.0465 16.5756 79.0952C16.594 82.2782 16.2637 85.4245 15.0346 88.4603C23.4183 88.4603 31.802 88.4787 40.1857 88.4787C40.6993 88.4787 41.2497 88.4787 41.7267 88.2763C43.6896 87.5035 44.1115 83.235 44.1666 81.4687C44.4234 78.6537 44.0565 75.949 42.809 73.3916C42.1119 71.9565 41.213 71.8829 39.7821 71.9197C37.9109 71.9749 36.0397 71.9197 34.1685 71.9381C29.5272 71.9381 24.8859 71.9565 20.2446 71.9381C18.5385 71.9381 16.8324 71.9381 15.0163 71.9381C15.585 73.318 15.8785 74.6611 16.2271 75.9674ZM69.7395 71.9565C66.2723 71.9565 62.7868 71.9565 59.2095 71.9565C59.5947 71.9565 60.2735 75.5626 60.3652 75.9858C60.6037 77.2921 60.7321 78.5985 60.7505 79.9232C60.7872 81.3767 60.6587 82.8302 60.4203 84.2653C60.1818 85.5901 59.3562 87.154 59.3379 88.4419C62.8968 88.8467 66.7126 88.4787 70.2899 88.4787C71.4456 88.4787 72.6197 88.4787 73.7755 88.4787C77.4078 88.4971 81.0401 88.4603 84.6908 88.5339C85.7731 88.5523 86.4335 88.1843 86.8738 87.2644C88.8367 83.1614 88.9468 78.9664 87.5159 74.6979C87.2407 73.7596 86.8555 72.8948 86.1033 72.2508C85.9382 71.9749 85.6814 71.9381 85.3879 71.9381C81.3336 71.9565 77.2794 71.9565 73.2251 71.9749C72.0694 71.9565 70.9136 71.9565 69.7395 71.9565ZM10.9437 81.6711C11.2555 78.7089 10.8886 75.8754 9.49442 73.226C8.65055 71.6253 7.95344 71.5885 7.16461 73.1708C5.14665 77.237 5.07327 81.4503 6.48584 85.7188C6.6326 86.4548 6.9995 87.0804 7.42144 87.6691C8.13689 88.6811 8.52214 88.6995 9.2009 87.6323C10.375 85.8292 10.8703 83.8054 10.9437 81.6711Z" fill="#FF7263"/>
</svg>
