<svg width="36" height="36" viewBox="0 0 36 36" fill="none" xmlns="http://www.w3.org/2000/svg">
<circle cx="18" cy="18" r="17" fill="#FF7263" stroke="#FF7263" stroke-width="2"/>
<path d="M26.6467 7.12815C25.4329 6.59413 23.841 6.30005 22.1643 6.30005C18.733 6.30005 15.5725 7.56 15.5725 9.59595C15.5725 10.1053 15.5725 14.0658 15.5725 14.5418C14.9225 14.3525 14.2436 14.2542 13.551 14.2542C11.6187 14.2542 9.79783 15.0177 8.42393 16.4043C7.05433 17.7865 6.30005 19.6136 6.30005 21.5491C6.30005 25.5473 9.55284 28.8 13.551 28.8C14.8852 28.8 16.168 28.4415 17.289 27.7701C18.515 28.4278 20.262 28.8 22.1643 28.8C23.841 28.8 25.4329 28.506 26.6467 27.9719C28.0353 27.3611 28.8 26.4846 28.8 25.5042C28.8 25.0936 28.8 10.015 28.8 9.59595C28.8 8.61544 28.0353 7.73904 26.6467 7.12815ZM13.551 27.4817C10.2798 27.4817 7.61841 24.8203 7.61841 21.5491C7.61841 18.2536 10.2798 15.5725 13.551 15.5725C16.8465 15.5725 19.5276 18.2536 19.5276 21.5491C19.5276 24.8203 16.8465 27.4817 13.551 27.4817ZM27.4817 25.5042C27.4817 26.3105 25.4102 27.4817 22.1643 27.4817C20.7835 27.4817 19.479 27.2604 18.4892 26.8726C18.559 26.8084 18.6281 26.7433 18.6958 26.6762C19.2894 26.088 19.7684 25.4178 20.1226 24.6921C20.7775 24.7931 21.4617 24.845 22.1643 24.845C23.8976 24.845 26.0471 24.508 27.4817 23.5697V25.5042ZM27.4817 21.5491C27.4817 22.3554 25.4102 23.5266 22.1643 23.5266C21.6265 23.5266 21.1023 23.493 20.5972 23.4279C20.761 22.8222 20.8459 22.1919 20.8459 21.5491C20.8459 21.2903 20.8318 21.0335 20.8049 20.7793C21.2489 20.8232 21.7033 20.8459 22.1643 20.8459C23.8978 20.8459 26.0471 20.509 27.4817 19.5707V21.5491ZM27.4817 17.55C27.4817 18.3564 25.4102 19.5276 22.1643 19.5276C21.6032 19.5276 21.0542 19.4909 20.5263 19.4196C20.1842 18.3099 19.5738 17.2884 18.7282 16.4331C19.7473 16.7307 20.9311 16.8909 22.1643 16.8909C23.8978 16.8909 26.0471 16.5539 27.4817 15.6156V17.55ZM27.4817 13.595C27.4817 14.4013 25.4102 15.5725 22.1643 15.5725C20.6699 15.5725 19.2751 15.3184 18.237 14.857C17.4067 14.488 16.8909 14.0044 16.8909 13.595V11.626C18.3179 12.5614 20.4492 12.8918 22.1643 12.8918C23.8978 12.8918 26.0471 12.5549 27.4817 11.6166V13.595ZM22.1643 11.5735C18.9442 11.5735 16.8909 10.4197 16.8909 9.59595C16.8909 8.76964 18.95 7.61841 22.1643 7.61841C25.4102 7.61841 27.4817 8.78964 27.4817 9.59595C27.4817 10.4023 25.4102 11.5735 22.1643 11.5735Z" fill="white"/>
<path d="M13.5808 20.9393C13.2718 20.9393 13.0007 20.6502 13.0007 20.3206C13.0007 20.0775 13.1541 19.8583 13.3823 19.7752C13.68 19.6667 14.027 19.8138 14.3338 20.1791C14.54 20.4244 14.9058 20.4563 15.1511 20.2502C15.3965 20.0442 15.4283 19.6783 15.2222 19.433C14.9086 19.0595 14.5436 18.8029 14.1609 18.674V18.0002C14.1609 17.6799 13.9012 17.4202 13.5808 17.4202C13.2605 17.4202 13.0007 17.6799 13.0007 18.0002V18.6798C12.9956 18.6816 12.9904 18.6832 12.9852 18.6851C12.3006 18.9344 11.8406 19.5917 11.8406 20.3206C11.8406 20.7829 12.0184 21.2234 12.3411 21.5611C12.673 21.9083 13.1133 22.0995 13.5808 22.0995C13.9007 22.0995 14.1609 22.3597 14.1609 22.6795C14.1609 22.9132 14.0218 23.123 13.8067 23.2142C13.5469 23.3242 13.2361 23.2303 12.9536 22.9567C12.7235 22.7338 12.3563 22.7396 12.1334 22.9696C11.9105 23.1997 11.9163 23.5669 12.1464 23.7898C12.4082 24.0436 12.6994 24.2229 13.0007 24.324V24.9999C13.0007 25.3202 13.2605 25.5799 13.5808 25.5799C13.9012 25.5799 14.1609 25.3202 14.1609 24.9999V24.3203C14.8684 24.0688 15.321 23.4087 15.321 22.6795C15.321 21.72 14.5404 20.9393 13.5808 20.9393Z" fill="white"/>
</svg>
