<svg width="26" height="26" viewBox="0 0 26 26" fill="none" xmlns="http://www.w3.org/2000/svg">
<circle cx="13" cy="13" r="13" fill="#FF7263" fill-opacity="0.08"/>
<path d="M13 8.75C14.1 8.75 15 7.79375 15 6.625C15 5.45625 14.1 4.5 13 4.5C11.9 4.5 11 5.45625 11 6.625C11 7.79375 11.9 8.75 13 8.75ZM13 10.875C11.9 10.875 11 11.8313 11 13C11 14.1687 11.9 15.125 13 15.125C14.1 15.125 15 14.1687 15 13C15 11.8313 14.1 10.875 13 10.875ZM13 17.25C11.9 17.25 11 18.2063 11 19.375C11 20.5438 11.9 21.5 13 21.5C14.1 21.5 15 20.5438 15 19.375C15 18.2063 14.1 17.25 13 17.25Z" fill="#FF7263"/>
</svg>
