<svg width="18" height="18" viewBox="0 0 18 18" fill="none" xmlns="http://www.w3.org/2000/svg">
<rect x="0.75" y="0.75" width="16.5" height="16.5" rx="2.25" stroke="#DF4D3D" stroke-width="1.5"/>
<circle cx="8.99983" cy="9.00007" r="4.55769" stroke="#DF4D3D" stroke-width="1.5"/>
<rect x="0.75" y="0.75" width="16.5" height="16.5" rx="2.25" stroke="#DF4D3D" stroke-width="1.5"/>
<circle cx="8.99983" cy="9.00007" r="4.55769" stroke="#DF4D3D" stroke-width="1.5"/>
<path d="M11.5303 7.53033C11.8232 7.23744 11.8232 6.76256 11.5303 6.46967C11.2374 6.17678 10.7626 6.17678 10.4697 6.46967L11.5303 7.53033ZM6.46967 10.4697C6.17678 10.7626 6.17678 11.2374 6.46967 11.5303C6.76256 11.8232 7.23744 11.8232 7.53033 11.5303L6.46967 10.4697ZM10.4697 6.46967L8.46967 8.46967L9.53033 9.53033L11.5303 7.53033L10.4697 6.46967ZM8.46967 8.46967L6.46967 10.4697L7.53033 11.5303L9.53033 9.53033L8.46967 8.46967Z" fill="#DF4D3D"/>
<path d="M10.4697 11.5303C10.7626 11.8232 11.2374 11.8232 11.5303 11.5303C11.8232 11.2374 11.8232 10.7626 11.5303 10.4697L10.4697 11.5303ZM7.53033 6.46967C7.23744 6.17678 6.76256 6.17678 6.46967 6.46967C6.17678 6.76256 6.17678 7.23744 6.46967 7.53033L7.53033 6.46967ZM11.5303 10.4697L9.53033 8.46967L8.46967 9.53033L10.4697 11.5303L11.5303 10.4697ZM9.53033 8.46967L7.53033 6.46967L6.46967 7.53033L8.46967 9.53033L9.53033 8.46967Z" fill="#DF4D3D"/>
</svg>
