<svg width="18" height="18" viewBox="0 0 18 18" fill="none" xmlns="http://www.w3.org/2000/svg">
<rect x="0.75" y="0.75" width="16.5" height="16.5" rx="2.25" stroke="#DF4D3D" stroke-width="1.5"/>
<circle cx="8.99983" cy="9.00007" r="4.55769" stroke="#DF4D3D" stroke-width="1.5"/>
<path d="M8.38462 10.3077L7.85429 10.838C8.14718 11.1309 8.62205 11.1309 8.91495 10.838L8.38462 10.3077ZM11.2226 8.53033C11.5155 8.23744 11.5155 7.76256 11.2226 7.46967C10.9297 7.17678 10.4549 7.17678 10.162 7.46967L11.2226 8.53033ZM7.53033 8.39275C7.23744 8.09985 6.76256 8.09985 6.46967 8.39275C6.17678 8.68564 6.17678 9.16051 6.46967 9.45341L7.53033 8.39275ZM8.91495 10.838L11.2226 8.53033L10.162 7.46967L7.85429 9.77736L8.91495 10.838ZM8.91495 9.77736L7.53033 8.39275L6.46967 9.45341L7.85429 10.838L8.91495 9.77736Z" fill="#DF4D3D"/>
</svg>
