<svg width="26" height="30" viewBox="0 0 26 30" fill="none" xmlns="http://www.w3.org/2000/svg">
<path d="M25.9006 0.468391C25.7526 0.180214 25.4623 0 25.1464 0H17.004C16.7186 0 16.4522 0.147143 16.2938 0.392088L12.9993 5.48894L9.70622 0.392264C9.5479 0.147202 9.28144 0 8.99604 0H0.853625C0.537544 0 0.247301 0.180272 0.0993334 0.468567C-0.0486338 0.756862 -0.0301948 1.10595 0.147309 1.37586L7.46753 12.5095C7.21849 12.6634 7.05123 12.9437 7.05123 13.2651C7.05123 13.7452 7.42331 14.1347 7.88594 14.1452C5.81104 15.7535 4.46636 18.3137 4.46636 21.192C4.46636 26.0488 8.29456 30 13 30C17.7055 30 21.5337 26.0488 21.5337 21.192C21.5337 18.3137 20.189 15.7535 18.1141 14.1452C18.5767 14.1347 18.9488 13.7452 18.9488 13.2651C18.9488 12.9458 18.7837 12.6669 18.5373 12.5125L25.8529 1.37557C26.0303 1.1056 26.0486 0.756569 25.9006 0.468391ZM17.4606 1.76219H19.5581L15.0516 8.66524L14.0253 7.07685L17.4606 1.76219ZM8.53927 1.76219L15.4023 12.3841H13.5365L6.71603 1.76219H8.53927ZM2.46459 1.76219H4.66777L11.4882 12.3841H9.44836L2.46459 1.76219ZM19.8263 21.192C19.8263 25.0771 16.764 28.2378 13 28.2378C9.23591 28.2378 6.17362 25.0771 6.17362 21.192C6.17362 17.307 9.23591 14.1462 13 14.1462C16.764 14.1462 19.8263 17.307 19.8263 21.192ZM17.0103 11.6967L16.0756 10.2502L21.6168 1.76219H23.5362L17.0103 11.6967Z" fill="#232323"/>
</svg>
