<svg width="36" height="36" viewBox="0 0 36 36" fill="none" xmlns="http://www.w3.org/2000/svg">
<circle cx="18" cy="18" r="17" fill="#FF7263" stroke="#FF7263" stroke-width="2"/>
<path d="M30.682 14.4727L18.5082 9.10826C18.18 8.96391 17.808 8.96391 17.4797 9.10826L5.32234 14.4655C4.82582 14.684 4.82582 15.4024 5.32234 15.6214L6.45631 16.1214C6.4869 16.1348 6.50711 16.166 6.50711 16.2V22.1842C6.50711 22.6435 6.87199 23.0158 7.32208 23.0158C7.77217 23.0158 8.13759 22.6435 8.13759 22.1837V16.992C8.13759 16.9306 8.19932 16.8888 8.25449 16.9134L9.88279 17.6307C9.91337 17.6441 9.93359 17.6753 9.93359 17.7093V23.2599C9.93359 23.4918 10.0281 23.7125 10.1947 23.8702C10.3039 23.9733 12.9296 26.4 17.9948 26.4C23.06 26.4 25.6857 23.9733 25.7949 23.8702C25.9615 23.713 26.056 23.4918 26.056 23.2599V17.7093C26.056 17.6753 26.0757 17.6441 26.1068 17.6307L30.6825 15.6142C31.1725 15.3985 31.1725 14.6884 30.682 14.4727ZM18.3438 10.8472L27.338 14.8105C27.5379 14.8986 27.5379 15.1878 27.338 15.2759L18.2706 19.2715C18.0942 19.3495 17.8943 19.3495 17.7179 19.2715L8.66689 15.2831C8.46096 15.1923 8.46096 14.8941 8.66689 14.8033L17.6447 10.8472C17.8675 10.7491 18.121 10.7491 18.3438 10.8472ZM24.425 22.8502C24.425 22.8553 24.4228 22.8597 24.419 22.8625C23.6952 23.3965 21.5261 24.7369 17.9937 24.7369C14.4585 24.7369 12.2889 23.3942 11.5684 22.8631C11.5646 22.8603 11.5624 22.8558 11.5624 22.8514C11.5624 22.6552 11.5624 18.7287 11.5624 18.3948C11.5624 18.3837 11.5734 18.377 11.5832 18.3814L17.5747 21.0216C17.8419 21.1392 18.145 21.1392 18.4121 21.0216L24.4037 18.3814C24.4135 18.377 24.4244 18.3842 24.4244 18.3954L24.425 22.8502Z" fill="white"/>
</svg>
