<svg width="29" height="20" viewBox="0 0 29 20" fill="none" xmlns="http://www.w3.org/2000/svg">
<path d="M28.5912 6.08083L15.0648 0.120294C14.7 -0.0400981 14.2867 -0.0400981 13.9219 0.120294L0.413767 6.07278C-0.137922 6.31553 -0.137922 7.11378 0.413767 7.35715L1.67373 7.91264C1.70772 7.92751 1.73017 7.96219 1.73017 7.99996V14.6491C1.73017 15.1594 2.13559 15.5731 2.63569 15.5731C3.1358 15.5731 3.54182 15.1594 3.54182 14.6485V8.87995C3.54182 8.81183 3.61041 8.76539 3.6717 8.79264L5.48093 9.58964C5.51491 9.60451 5.53737 9.63919 5.53737 9.67696V15.8443C5.53737 16.102 5.64237 16.3472 5.82748 16.5224C5.94886 16.637 8.86632 19.3333 14.4943 19.3333C20.1222 19.3333 23.0397 16.637 23.1611 16.5224C23.3462 16.3478 23.4512 16.102 23.4512 15.8443V9.67696C23.4512 9.63919 23.473 9.60451 23.5076 9.58964L28.5918 7.3491C29.1362 7.10944 29.1362 6.32049 28.5912 6.08083ZM14.8821 2.05244L24.8756 6.45611C25.0977 6.55395 25.0977 6.87536 24.8756 6.9732L14.8008 11.4128C14.6047 11.4995 14.3826 11.4995 14.1866 11.4128L4.12993 6.98125C3.90112 6.88031 3.90112 6.549 4.12993 6.44806L14.1052 2.05244C14.3529 1.94344 14.6345 1.94344 14.8821 2.05244ZM21.6389 15.3892C21.6389 15.3947 21.6365 15.3997 21.6322 15.4028C20.8281 15.9961 18.418 17.4854 14.4931 17.4854C10.5651 17.4854 8.1544 15.9936 7.35388 15.4034C7.34963 15.4003 7.3472 15.3954 7.3472 15.3904C7.3472 15.1724 7.3472 10.8096 7.3472 10.4387C7.3472 10.4263 7.35934 10.4189 7.37026 10.4238L14.0276 13.3573C14.3243 13.488 14.6612 13.488 14.958 13.3573L21.6152 10.4238C21.6262 10.4189 21.6383 10.4269 21.6383 10.4393L21.6389 15.3892Z" fill="white"/>
</svg>
