<svg width="18" height="18" viewBox="0 0 18 18" fill="none" xmlns="http://www.w3.org/2000/svg">
<path d="M9 9.5L9 14" stroke="#DF4D3D" stroke-width="1.5" stroke-linecap="round" stroke-linejoin="round"/>
<path d="M12.5 9.5L12.5 14" stroke="#DF4D3D" stroke-width="1.5" stroke-linecap="round" stroke-linejoin="round"/>
<path d="M5.5 9.5L5.5 14" stroke="#DF4D3D" stroke-width="1.5" stroke-linecap="round" stroke-linejoin="round"/>
<path d="M16.75 2V15.5C16.75 16.1904 16.1904 16.75 15.5 16.75H2C1.30964 16.75 0.75 16.1904 0.75 15.5V2C0.75 1.30964 1.30964 0.75 2 0.75H4.375H13.125H15.5C16.1904 0.75 16.75 1.30964 16.75 2Z" stroke="#DF4D3D" stroke-width="1.5" stroke-linecap="round" stroke-linejoin="round"/>
<path d="M4.25 3.96377C4.25 3.84571 4.34571 3.75 4.46377 3.75H13.5362C13.6543 3.75 13.75 3.84571 13.75 3.96377V9C13.75 9.13807 13.6381 9.25 13.5 9.25H4.5C4.36193 9.25 4.25 9.13807 4.25 9V3.96377Z" stroke="#DF4D3D" stroke-width="1.5" stroke-linecap="round"/>
</svg>
