<svg width="35" height="33" viewBox="0 0 35 33" fill="none" xmlns="http://www.w3.org/2000/svg">
<path d="M26.2858 5.6837C26.3002 5.68474 26.3145 5.68579 26.3292 5.68579C26.354 5.68579 26.3788 5.6837 26.403 5.6803C27.0528 5.69362 27.5728 6.22357 27.5736 6.87335C27.5736 7.16861 27.813 7.408 28.1083 7.408C28.4035 7.408 28.6429 7.16861 28.6429 6.87335C28.6416 5.81057 27.9018 4.89112 26.8638 4.66243V4.14866C26.8638 3.85341 26.6244 3.61401 26.3292 3.61401C26.0339 3.61401 25.7945 3.85341 25.7945 4.14866V4.68671C24.697 4.98014 23.9869 6.04187 24.1349 7.16835C24.283 8.29482 25.2431 9.137 26.3793 9.137C27.039 9.137 27.5736 9.67191 27.5736 10.3316C27.5736 10.991 27.039 11.526 26.3793 11.526C25.7196 11.526 25.1849 10.991 25.1849 10.3316C25.1849 10.0364 24.9455 9.79696 24.6503 9.79696C24.355 9.79696 24.1156 10.0364 24.1156 10.3316C24.1169 11.356 24.8051 12.2522 25.7945 12.5182V13.1041C25.7945 13.3993 26.0339 13.6387 26.3292 13.6387C26.6244 13.6387 26.8638 13.3993 26.8638 13.1041V12.5428C27.9929 12.2956 28.7544 11.2372 28.6299 10.088C28.5056 8.93885 27.5352 8.06796 26.3793 8.06822C25.7379 8.06848 25.2108 7.56202 25.1854 6.92112C25.1604 6.28022 25.6462 5.73382 26.2858 5.68396V5.6837Z" fill="#232323" stroke="#232323" stroke-width="0.5"/>
<path d="M26.4098 1C23.1207 1 20.3138 3.14617 19.2622 6.01992H5.99225C5.6983 6.01992 5.45969 6.2849 5.4576 6.57859L5.33125 25.3342H1.54875C1.25349 25.3342 1 25.548 1 25.8438V28.2239C1.00679 30.4645 2.77155 32.3053 5.00988 32.4066V32.4183H21.5172V32.4027C21.6509 32.4076 21.706 32.4183 21.7906 32.4183H21.8021C24.1187 32.4147 25.9949 30.5356 25.9949 28.2189V16.1851C26.1286 16.1924 26.2701 16.1963 26.4085 16.1963C30.594 16.1963 34.0001 12.7837 34.0001 8.59789C34.0001 4.41232 30.5956 1 26.4098 1ZM5.21325 31.349H5.20986C3.48033 31.3467 2.07713 29.9482 2.0693 28.2184V26.4035H17.5742V28.2108C17.575 29.3266 18.0206 30.3961 18.8121 31.1827C18.8683 31.2388 18.938 31.2822 18.9967 31.349H5.21325ZM24.9256 28.2184C24.9259 29.945 23.5279 31.3456 21.8015 31.349H21.7914C20.0579 31.3459 18.6521 29.9445 18.6435 28.2113V25.8438C18.6479 25.707 18.5957 25.5746 18.4989 25.478C18.402 25.3814 18.2697 25.3295 18.1331 25.3342H6.40055L6.52325 7.08923H18.9654C18.8706 7.57871 18.8215 8.07577 18.8189 8.57414C18.8179 9.62804 19.0377 10.6702 19.4643 11.6338H14.4143C14.1188 11.6338 13.8797 11.8732 13.8797 12.1684C13.8797 12.4637 14.1188 12.7031 14.4143 12.7031H20.0443C21.1473 14.4375 22.9105 15.6468 24.9256 16.0514V28.2184ZM26.4098 15.1273C22.8082 15.1273 19.8882 12.2076 19.8885 8.60572C19.8885 5.00388 22.8082 2.08418 26.41 2.08418C30.0116 2.08418 32.9313 5.00414 32.9313 8.60572C32.9274 12.2057 30.0101 15.1234 26.4098 15.1273Z" fill="#232323" stroke="#232323" stroke-width="0.5"/>
<path d="M10.9825 15.192C10.0388 15.192 9.27124 15.9353 9.27124 16.849C9.27124 17.7627 10.0388 18.5059 10.9825 18.5059C11.9262 18.5059 12.694 17.7627 12.694 16.849C12.694 15.9353 11.9262 15.192 10.9825 15.192ZM10.9825 17.4366C10.6282 17.4366 10.3405 17.1729 10.3405 16.849C10.3405 16.5247 10.6285 16.2613 10.9825 16.2613C11.3365 16.2613 11.6247 16.525 11.6247 16.849C11.6247 17.1729 11.3365 17.4366 10.9825 17.4366Z" fill="#232323" stroke="#232323" stroke-width="0.5"/>
<path d="M13.8796 16.8467C13.8796 17.1419 14.1188 17.3813 14.4143 17.3813H21.5423C21.8375 17.3813 22.0769 17.1419 22.0769 16.8467C22.0769 16.5514 21.8375 16.312 21.5423 16.312H14.4143C14.1188 16.312 13.8796 16.5514 13.8796 16.8467Z" fill="#232323" stroke="#232323" stroke-width="0.5"/>
<path d="M10.9825 10.5444C10.0388 10.5444 9.27124 11.2879 9.27124 12.2016C9.27124 13.1154 10.0388 13.8586 10.9825 13.8586C11.9262 13.8586 12.694 13.1154 12.694 12.2016C12.694 11.2879 11.9262 10.5444 10.9825 10.5444ZM10.9825 12.7893C10.6282 12.7893 10.3405 12.5256 10.3405 12.2016C10.3405 11.8777 10.6285 11.6137 10.9825 11.6137C11.3365 11.6137 11.6247 11.8774 11.6247 12.2016C11.6247 12.5256 11.3365 12.7896 10.9825 12.7896V12.7893Z" fill="#232323" stroke="#232323" stroke-width="0.5"/>
<path d="M10.9825 19.8391C10.0388 19.8391 9.27124 20.5823 9.27124 21.4961C9.27124 22.4098 10.0388 23.153 10.9825 23.153C11.9262 23.153 12.694 22.4098 12.694 21.4961C12.694 20.5823 11.9262 19.8391 10.9825 19.8391ZM10.9825 22.0837C10.6282 22.0837 10.3405 21.8203 10.3405 21.4961C10.3405 21.1721 10.6285 20.9084 10.9825 20.9084C11.3365 20.9084 11.6247 21.1721 11.6247 21.4961C11.6247 21.82 11.3365 22.0837 10.9825 22.0837Z" fill="#232323" stroke="#232323" stroke-width="0.5"/>
<path d="M21.5423 20.9902H14.4143C14.1188 20.9902 13.8796 21.2296 13.8796 21.5249C13.8796 21.8201 14.1188 22.0595 14.4143 22.0595H21.5423C21.8375 22.0595 22.0769 21.8201 22.0769 21.5249C22.0769 21.2296 21.8375 20.9902 21.5423 20.9902Z" fill="#232323" stroke="#232323" stroke-width="0.5"/>
</svg>
