<svg width="17" height="14" viewBox="0 0 17 14" fill="none" xmlns="http://www.w3.org/2000/svg">
<path d="M7.4679 2.35639L8.0102 2.92405L8.5525 2.35639C9.24831 1.62806 10.362 0.75 11.5579 0.75C12.6937 0.75 13.6131 1.14289 14.2467 1.77542C14.8802 2.40785 15.2733 3.32494 15.2733 4.45739C15.2733 5.68497 14.7954 6.71468 14.0217 7.67905C13.2336 8.66138 12.1768 9.5309 11.0607 10.4454L11.0446 10.4585C10.0205 11.2973 8.89687 12.2175 8.02187 13.25H7.99926C7.13292 12.2261 6.01965 11.313 5.00428 10.4802L4.96218 10.4456L4.96188 10.4454C3.84551 9.53061 2.78889 8.6609 2.00103 7.6786C1.22757 6.71425 0.75 5.68469 0.75 4.45739C0.75 3.32495 1.14306 2.40787 1.77665 1.77545C2.41034 1.14293 3.32991 0.75 4.46613 0.75C5.66083 0.75 6.7715 1.62744 7.4679 2.35639Z" stroke="#DF4D3D" stroke-width="1.5"/>
</svg>
