<svg width="36" height="36" viewBox="0 0 36 36" fill="none" xmlns="http://www.w3.org/2000/svg">
<path d="M36 18C36 27.9411 27.9411 36 18 36C8.05887 36 0 27.9411 0 18C0 8.05887 8.05887 0 18 0C27.9411 0 36 8.05887 36 18Z" fill="#FF7263"/>
<path fill-rule="evenodd" clip-rule="evenodd" d="M22.4747 10.0254C22.6743 9.94266 22.8883 9.9001 23.1044 9.9001C23.3205 9.9001 23.5345 9.94266 23.7341 10.0254C23.9338 10.1081 24.1152 10.2293 24.268 10.3821C24.4208 10.5349 24.542 10.7163 24.6247 10.9159C24.7074 11.1156 24.75 11.3296 24.75 11.5457C24.75 11.7618 24.7074 11.9758 24.6247 12.1754C24.542 12.3751 24.4208 12.5565 24.268 12.7093L24.9044 13.3457L24.268 12.7093L13.4826 23.495L10.2827 24.3677L11.1554 21.1677L21.9408 10.3821L21.9408 10.3821C22.0936 10.2293 22.275 10.1081 22.4747 10.0254ZM23.1044 8.1001C22.6519 8.1001 22.2039 8.18922 21.7858 8.36238C21.3678 8.53553 20.988 8.78933 20.668 9.10929L20.668 9.10929L9.71359 20.064C9.60285 20.1747 9.52292 20.3125 9.48171 20.4636L8.13171 25.4136C8.04673 25.7251 8.13523 26.0584 8.3636 26.2868C8.59198 26.5151 8.92521 26.6036 9.2368 26.5186L14.1868 25.1686C14.3379 25.1274 14.4756 25.0475 14.5864 24.9367L25.5408 13.9821C25.8608 13.6621 26.1146 13.2823 26.2877 12.8643C26.4609 12.4462 26.55 11.9982 26.55 11.5457C26.55 11.0932 26.4609 10.6452 26.2877 10.2271C26.1146 9.80908 25.8608 9.42924 25.5408 9.10929C25.2209 8.78933 24.841 8.53553 24.423 8.36238C24.0049 8.18922 23.5569 8.1001 23.1044 8.1001ZM18 24.3005C17.5029 24.3005 17.1 24.7034 17.1 25.2005C17.1 25.6975 17.5029 26.1005 18 26.1005H25.2C25.6971 26.1005 26.1 25.6975 26.1 25.2005C26.1 24.7034 25.6971 24.3005 25.2 24.3005H18Z" fill="white"/>
</svg>
