<svg width="40" height="40" viewBox="0 0 40 40" fill="none" xmlns="http://www.w3.org/2000/svg">
<line x1="20" y1="28" x2="28" y2="28" stroke="white" stroke-width="2" stroke-linecap="round"/>
<path d="M23.6716 10.8284C23.9342 10.5658 24.246 10.3574 24.5892 10.2153C24.9323 10.0732 25.3001 10 25.6716 10C26.043 10 26.4108 10.0732 26.754 10.2153C27.0971 10.3574 27.4089 10.5658 27.6716 10.8284C27.9342 11.0911 28.1426 11.4029 28.2847 11.746C28.4268 12.0892 28.5 12.457 28.5 12.8284C28.5 13.1999 28.4268 13.5677 28.2847 13.9108C28.1426 14.254 27.9342 14.5658 27.6716 14.8284L15.5 27.0003L10 28.5003L11.5 23.0003L23.6716 10.8284Z" stroke="white" stroke-width="2" stroke-linecap="round" stroke-linejoin="round"/>
</svg>
