<svg height="480pt" viewBox="-56 0 480 480" width="480pt" xmlns="http://www.w3.org/2000/svg"><path d="m251.3125 0h-227.3125c-13.253906 0-24 10.746094-24 24v424c0 17.671875 14.328125 32 32 32h304c17.671875 0 32-14.328125 32-32v-331.3125zm4.6875 27.3125 84.6875 84.6875h-76.6875c-4.417969 0-8-3.582031-8-8zm80 436.6875h-304c-8.835938 0-16-7.164062-16-16v-424c0-4.417969 3.582031-8 8-8h216v88c0 13.253906 10.746094 24 24 24h88v320c0 8.835938-7.164062 16-16 16zm0 0"/><path d="m64 240c0 66.273438 53.726562 120 120 120s120-53.726562 120-120-53.726562-120-120-120c-66.242188.074219-119.925781 53.757812-120 120zm224 0c0 57.4375-46.5625 104-104 104s-104-46.5625-104-104 46.5625-104 104-104c57.410156.066406 103.933594 46.589844 104 104zm0 0"/><path d="m176 160v16h-24c-13.253906 0-24 10.746094-24 24v24c0 13.253906 10.746094 24 24 24h24v40h-24c-4.417969 0-8-3.582031-8-8h-16c0 13.253906 10.746094 24 24 24h24v16h16v-16h24c13.253906 0 24-10.746094 24-24v-24c0-13.253906-10.746094-24-24-24h-24v-40h24c4.417969 0 8 3.582031 8 8h16c0-13.253906-10.746094-24-24-24h-24v-16zm40 88c4.417969 0 8 3.582031 8 8v24c0 4.417969-3.582031 8-8 8h-24v-40zm-40-16h-24c-4.417969 0-8-3.582031-8-8v-24c0-4.417969 3.582031-8 8-8h24zm0 0"/><path d="m104 232h8v16h-8zm0 0"/><path d="m256 232h8v16h-8zm0 0"/><path d="m40 384h168v16h-168zm0 0"/><path d="m40 424h288v16h-288zm0 0"/><path d="m232 384h96v16h-96zm0 0"/><path d="m40 40h176v16h-176zm0 0"/><path d="m40 72h88v16h-88zm0 0"/><path d="m152 72h64v16h-64zm0 0"/></svg>