<?xml version="1.0" standalone="no"?>
<!DOCTYPE svg PUBLIC "-//W3C//DTD SVG 20010904//EN"
 "http://www.w3.org/TR/2001/REC-SVG-20010904/DTD/svg10.dtd">
<svg version="1.0" xmlns="http://www.w3.org/2000/svg"
 width="887.000000pt" height="887.000000pt" viewBox="0 0 887.000000 887.000000"
 preserveAspectRatio="xMidYMid meet">

<g transform="translate(0.000000,887.000000) scale(0.100000,-0.100000)"
fill="#000000" stroke="none">
<path d="M2345 6255 c-1062 -526 -1941 -967 -1955 -980 -33 -34 -33 -90 1
-119 14 -12 292 -147 619 -300 l595 -279 -4 -802 -3 -802 28 -30 c22 -23 360
-178 1443 -658 778 -345 1424 -627 1435 -627 12 0 651 285 1421 634 1231 557
1401 637 1417 663 15 27 18 103 28 858 9 655 9 835 0 858 -13 30 -55 59 -86
59 -9 0 -635 -293 -1390 -651 -924 -437 -1382 -649 -1399 -647 -14 2 -592 269
-1285 593 -860 403 -1259 595 -1260 605 0 11 251 131 830 395 457 209 837 381
844 383 8 2 21 -22 35 -64 55 -169 188 -284 364 -314 269 -47 541 221 500 491
-37 238 -235 401 -472 387 -67 -4 -93 -11 -154 -41 -83 -41 -156 -108 -198
-183 l-30 -52 -967 -442 c-532 -244 -977 -445 -989 -447 -32 -7 -1013 455
-1013 477 0 11 415 221 1483 750 815 403 1622 803 1793 888 l311 155 2052
-966 c1128 -532 2062 -967 2075 -967 14 0 38 12 55 26 42 35 43 89 4 126 -26
23 -4125 1961 -4175 1973 -17 4 -540 -250 -1953 -950z m1832 -550 c59 -25 96
-59 128 -116 68 -126 17 -288 -110 -348 -58 -27 -163 -28 -220 -2 -124 56
-180 211 -121 337 26 56 84 111 137 130 48 18 143 17 186 -1z m3008 -1637 c-3
-227 -8 -548 -11 -713 l-6 -300 -1333 -603 -1333 -603 -1356 603 -1356 603 0
646 c0 684 3 769 28 769 8 0 610 -279 1337 -620 727 -341 1333 -620 1347 -620
14 0 619 281 1344 625 726 344 1325 625 1332 625 11 0 12 -78 7 -412z"/>
</g>
</svg>
