<?xml version="1.0" standalone="no"?>
<!DOCTYPE svg PUBLIC "-//W3C//DTD SVG 20010904//EN"
 "http://www.w3.org/TR/2001/REC-SVG-20010904/DTD/svg10.dtd">
<svg version="1.0" xmlns="http://www.w3.org/2000/svg"
 width="1227.000000pt" height="282.000000pt" viewBox="0 0 1227.000000 282.000000"
 preserveAspectRatio="xMidYMid meet">

<g transform="translate(0.000000,282.000000) scale(0.100000,-0.100000)"
fill="#000000" stroke="none">
<path d="M3510 2155 l0 -35 100 0 100 0 0 -201 0 -201 67 48 c107 76 175 98
313 98 100 0 124 -4 181 -26 64 -25 113 -53 172 -98 l27 -22 0 201 0 201 75 0
75 0 2 -137 c1 -172 0 -186 -19 -197 -84 -47 -63 -166 30 -166 53 0 87 32 87
82 0 33 -6 46 -35 72 l-35 32 0 157 0 157 35 0 c33 0 35 2 35 35 l0 35 -605 0
-605 0 0 -35z m1164 -411 c18 -18 20 -47 6 -75 -21 -39 -100 -12 -100 34 0 48
61 74 94 41z"/>
<path d="M2765 2151 c-11 -5 -29 -19 -40 -31 -19 -22 -20 -38 -23 -658 -2
-466 1 -644 9 -665 27 -64 109 -78 160 -28 l29 29 0 146 c0 87 4 146 10 146
13 0 106 -76 225 -185 168 -152 171 -155 215 -155 90 0 126 94 66 173 -15 20
-69 70 -119 111 -51 42 -130 111 -177 153 -47 43 -95 85 -108 93 -23 15 -21
17 125 126 81 61 169 125 194 142 111 75 140 153 80 213 -33 32 -67 37 -110
15 -15 -8 -109 -73 -210 -145 -100 -72 -185 -131 -188 -131 -3 0 -4 118 -3
263 2 144 2 277 1 294 -2 63 -81 117 -136 94z"/>
<path d="M4840 2102 c-21 -22 -30 -42 -35 -83 -3 -30 -5 -286 -3 -569 3 -462
5 -520 21 -561 38 -98 142 -159 275 -159 172 0 284 88 242 191 -23 55 -62 61
-171 28 -75 -23 -108 -20 -139 11 -19 19 -20 35 -20 304 l0 284 93 -5 c107 -6
163 6 197 42 35 37 34 96 -3 133 -26 26 -32 27 -155 32 l-127 5 -5 163 -5 164
-28 24 c-41 35 -99 33 -137 -4z"/>
<path d="M6868 1781 c-129 -42 -218 -130 -265 -263 -25 -70 -26 -83 -31 -356
-5 -324 -1 -364 35 -398 37 -35 96 -33 132 4 38 37 45 106 36 365 -10 289 7
362 101 425 46 32 54 34 115 30 82 -4 126 -34 167 -111 l27 -52 5 -310 c5
-322 8 -343 50 -365 43 -23 118 -1 142 43 9 16 12 103 13 322 l0 300 28 58
c41 83 88 112 181 112 85 0 121 -20 163 -93 l28 -47 5 -321 c5 -346 4 -340 61
-370 42 -21 75 -17 111 15 l33 29 3 293 c3 328 -6 406 -58 508 -66 131 -205
206 -365 199 -98 -4 -166 -33 -243 -103 l-52 -47 -20 25 c-29 37 -112 87 -181
108 -75 24 -147 23 -221 0z"/>
<path d="M8505 1786 c-81 -20 -126 -46 -191 -111 -111 -110 -126 -184 -122
-594 l3 -293 28 -24 c30 -26 83 -32 119 -13 43 23 48 61 48 363 0 317 5 353
63 415 41 43 84 61 147 61 83 0 139 -42 182 -135 22 -48 23 -61 25 -325 1
-151 2 -288 2 -303 1 -17 13 -40 30 -58 55 -54 139 -29 161 49 5 21 10 151 10
303 0 296 6 336 61 403 40 47 82 66 149 66 57 0 93 -15 132 -57 59 -62 62 -80
68 -418 3 -216 9 -316 17 -331 17 -29 66 -48 106 -40 35 7 58 26 72 61 4 11 7
157 6 323 -3 347 -12 410 -76 507 -72 108 -214 173 -357 163 -93 -7 -154 -34
-224 -100 l-55 -51 -37 35 c-110 104 -229 138 -367 104z"/>
<path d="M5525 1776 c-52 -22 -55 -42 -55 -340 0 -298 6 -350 49 -443 71 -151
215 -248 386 -260 149 -10 277 37 376 137 109 111 132 226 127 622 l-3 238
-28 27 c-36 36 -105 39 -137 7 -34 -33 -40 -83 -40 -345 0 -270 -7 -314 -59
-386 -41 -57 -117 -93 -195 -93 -89 0 -129 15 -186 68 -83 78 -90 109 -90 425
0 296 -4 321 -56 343 -40 17 -50 17 -89 0z"/>
<path d="M4005 1769 c-261 -38 -445 -249 -445 -509 0 -211 105 -388 281 -474
158 -77 326 -76 498 5 35 16 65 28 66 27 1 -2 8 -18 15 -37 14 -35 62 -71 95
-71 40 0 83 37 96 82 14 55 6 533 -11 598 -45 176 -202 332 -370 368 -75 17
-162 21 -225 11z m213 -223 c91 -46 152 -123 178 -225 28 -111 -3 -218 -87
-296 -91 -85 -202 -113 -314 -80 -226 65 -305 320 -159 512 88 115 254 154
382 89z"/>
<path d="M3814 1284 c-10 -40 11 -136 40 -182 49 -78 157 -129 252 -119 70 7
134 43 134 74 0 34 -24 38 -67 13 -60 -35 -118 -36 -183 -3 -74 38 -109 89
-118 173 -6 57 -10 65 -29 68 -17 3 -24 -3 -29 -24z"/>
<path d="M4260 1125 c0 -20 5 -25 24 -25 27 0 40 22 23 39 -21 21 -47 13 -47
-14z"/>
</g>
</svg>
